<svg xmlns="http://www.w3.org/2000/svg" width="760" height="120" viewBox="0 0 760 120" fill="none">
  <rect width="760" height="120" rx="8" fill="#0d1b2a"/>
  <rect x="0" y="0" width="760" height="4" fill="#1b998b"/>
  <!-- Stylised evidence-flow icon -->
  <g transform="translate(28, 30)">
    <rect x="0" y="0" width="36" height="36" rx="4" fill="#1b998b" opacity="0.9"/>
    <path d="M8 12 L28 12 M8 18 L28 18 M8 24 L22 24" stroke="#0d1b2a" stroke-width="2" stroke-linecap="round"/>
    <rect x="48" y="0" width="36" height="36" rx="4" fill="#2ec4b1" opacity="0.85"/>
    <path d="M56 8 L66 8 L72 18 L66 28 L56 28 L50 18 Z" fill="#0d1b2a" opacity="0.7"/>
    <line x1="42" y1="18" x2="48" y2="18" stroke="#4a8f95" stroke-width="2"/>
    <line x1="42" y1="18" x2="48" y2="18" stroke="#4a8f95" stroke-width="2" stroke-dasharray="2 2"/>
    <rect x="96" y="0" width="36" height="36" rx="4" fill="#1b998b" opacity="0.6"/>
    <circle cx="114" cy="18" r="8" fill="none" stroke="#0d1b2a" stroke-width="2"/>
    <line x1="114" y1="10" x2="114" y2="26" stroke="#0d1b2a" stroke-width="2"/>
    <line x1="106" y1="18" x2="122" y2="18" stroke="#0d1b2a" stroke-width="2"/>
  </g>
  <!-- Title text -->
  <text x="200" y="50" font-family="system-ui, -apple-system, sans-serif" font-size="32" font-weight="700" fill="#e0fbfc">Kobald</text>
  <text x="200" y="78" font-family="system-ui, -apple-system, sans-serif" font-size="14" fill="#a0b8c5">Evidence focused AI and smart systems project</text>
  <text x="200" y="98" font-family="system-ui, -apple-system, sans-serif" font-size="12" fill="#6b8a99">evidence before authority &#183; local operation &#183; human review</text>
  <!-- Accent line -->
  <rect x="200" y="106" width="340" height="2" rx="1" fill="#2ec4b1" opacity="0.6"/>
</svg>